<svg height="512" viewBox="0 0 60 60" width="512" xmlns="http://www.w3.org/2000/svg"><g id="Page-1" fill="none" fill-rule="evenodd"><g id="098---Robot-Farming-Assistant" transform="translate(0 -1)"><g fill-rule="nonzero"><rect id="Rectangle-path" fill="#9e9e9e" height="14" rx="2" width="16" x="22" y="14"/><path id="Shape" d="m36 14h-3c1.1032019.0032948 1.9967052.8967981 2 2v10c-.0032948 1.1032019-.8967981 1.9967052-2 2h3c1.1032019-.0032948 1.9967052-.8967981 2-2v-10c-.0032948-1.1032019-.8967981-1.9967052-2-2z" fill="#707070"/><path id="Shape" d="m34 14h-8c0-2.209139 1.790861-4 4-4s4 1.790861 4 4z" fill="#ef314c"/><path id="Shape" d="m22 17v8h-2c-1.1032019-.0032948-1.9967052-.8967981-2-2v-4c.0032948-1.1032019.8967981-1.9967052 2-2z" fill="#545c60"/><path id="Shape" d="m42 19v4c-.0032948 1.1032019-.8967981 1.9967052-2 2h-2v-8h2c1.1032019.0032948 1.9967052.8967981 2 2z" fill="#545c60"/><path id="Rectangle-path" d="m27 28h6v4h-6z" fill="#545c60"/><path id="Shape" d="m39 34v14c-.0032948 1.1032019-.8967981 1.9967052-2 2h-14c-1.1032019-.0032948-1.9967052-.8967981-2-2v-14c.0033546-.8441668.5351012-1.5958086 1.33-1.88.2140079-.0810272.4411729-.1217135.67-.12h14c.2288271-.0017135.4559921.0389728.67.12.7948988.2841914 1.3266454 1.0358332 1.33 1.88z" fill="#9e9e9e"/><path id="Shape" d="m37.67 32.12c-.2140079-.0810272-.4411729-.1217135-.67-.12l-3-.000052c.2288271-.0016615.4559921.0390248.67.120052.7948988.2841914 1.3266454 1.0358332 1.33 1.88v14c-.0032948 1.1032019-.8967981 1.9967052-2 2h3c1.1032019-.0032948 1.9967052-.8967981 2-2v-14c-.0033546-.8441668-.5351012-1.5958086-1.33-1.88z" fill="#707070"/><rect id="Rectangle-path" fill="#cfd8dc" height="10" rx="1" transform="matrix(0 1 -1 0 71 11)" width="10" x="25" y="36"/><path id="Shape" d="m39 57c0 1.6568542-1.3431458 3-3 3h-12c-1.6568542 0-3-1.3431458-3-3s1.3431458-3 3-3h12c1.6568542 0 3 1.3431458 3 3z" fill="#9e9e9e"/><path id="Shape" d="m36 54h-3c1.6568542 0 3 1.3431458 3 3s-1.3431458 3-3 3h3c1.6568542 0 3-1.3431458 3-3s-1.3431458-3-3-3z" fill="#707070"/><path id="Rectangle-path" d="m24 50h12v4h-12z" fill="#545c60"/><rect id="Rectangle-path" fill="#a0522d" height="8" rx="1" width="14" x="1" y="52"/><path id="Shape" d="m14 52h-3c.5522847 0 1 .4477153 1 1v6c0 .5522847-.4477153 1-1 1h3c.5522847 0 1-.4477153 1-1v-6c0-.5522847-.4477153-1-1-1z" fill="#783e22"/><path id="Shape" d="m13 39c-.0093188.7908908-.0795264 1.5798899-.21 2.36-.7275045 3.6650208-1.8715985 7.2348625-3.41 10.64h-2.76c-.99451675-2.2803868-1.85269486-4.6178369-2.57-7h1.95c.55228475 0 1-.4477153 1-1v-2c0-.5522847-.44771525-1-1-1h-2.85c-.09707656-.662298-.14720156-1.3306312-.15-2-.00242196-2.3491669 1.63086109-4.3832266 3.92510257-4.8882483 2.29424147-.5050217 4.63066873.6552024 5.61489743 2.7882483.3014775.6591391.4583267 1.3751895.46 2.1z" fill="#ff9801"/><path id="Shape" d="m12.54 36.9c-.8216013-1.7664275-2.5918504-2.8972033-4.54-2.9-.49957277.0068302-.99521596.0894374-1.47.245 1.32770566.4299907 2.41762144 1.3913616 3.01 2.655.30147754.6591391.45832669 1.3751895.46 2.1-.00931883.7908908-.07952637 1.5798899-.21 2.36-.70232355 3.5651003-1.80601894 7.0392247-3.29 10.356.039.094.081.193.12.284h2.76c1.5384015-3.4051375 2.6824955-6.9749792 3.41-10.64.1304736-.7801101.2006812-1.5691092.21-2.36-.0016733-.7248105-.1585225-1.4408609-.46-2.1z" fill="#f57c00"/></g><path id="Shape" d="m12 30-4 4-4-4" stroke="#000" stroke-linecap="round" stroke-linejoin="round" stroke-width="2"/><path id="Shape" d="m8 28v6" stroke="#000" stroke-linecap="round" stroke-linejoin="round" stroke-width="2"/><path id="Shape" d="m22.33 32.12c-.7948988.2841914-1.3266454 1.0358332-1.33 1.88v2.82c-.3193958.1211006-.6584234.1821256-1 .18-.1206222-.0000506-.2410332-.0100848-.36-.03-1.5079687-.1731733-2.6448174-1.452128-2.64-2.97v-.07c.0328601-1.2558615.8447446-2.3582428 2.0343165-2.7622062s2.504861-.0239432 3.2956835.9522062z" fill="#37474f" fill-rule="nonzero"/><path id="Shape" d="m19.64 36.97-6.65 4.43-.2-.04c.1304736-.7801101.2006812-1.5691092.21-2.36-.0016733-.7248105-.1585225-1.4408609-.46-2.1l4.46-2.97v.07c-.0048174 1.517872 1.1320313 2.7968267 2.64 2.97z" fill="#707070" fill-rule="nonzero"/><path id="Shape" d="m7 42v2c0 .5522847-.44771525 1-1 1h-3c-1.10320187-.0032948-1.9967052-.8967981-2-2-.00282307-.5305905.2101411-1.0395388.59-1.41.3704612-.3798589.87940947-.5928231 1.41-.59h3c.55228475 0 1 .4477153 1 1z" fill="#9e9e9e" fill-rule="nonzero"/><rect id="Rectangle-path" fill="#a0522d" fill-rule="nonzero" height="8" rx="1" width="14" x="45" y="52"/><path id="Shape" d="m58 52h-3c.5522847 0 1 .4477153 1 1v6c0 .5522847-.4477153 1-1 1h3c.5522847 0 1-.4477153 1-1v-6c0-.5522847-.4477153-1-1-1z" fill="#783e22" fill-rule="nonzero"/><path id="Shape" d="m53 42v2c0 .5522847.4477153 1 1 1h1.95c-.7173051 2.3821631-1.5754832 4.7196132-2.57 7h-2.76c-1.5384015-3.4051375-2.6824955-6.9749792-3.41-10.64-.1304736-.7801101-.2006812-1.5691092-.21-2.36.0016733-.7248105.1585225-1.4408609.46-2.1.9842287-2.1330459 3.320656-3.29327 5.6148974-2.7882483 2.2942415.5050217 3.9275246 2.5390814 3.9251026 4.8882483-.0027984.6693688-.0529234 1.337702-.15 2h-2.85c-.5522847 0-1 .4477153-1 1z" fill="#ff9801" fill-rule="nonzero"/><path id="Shape" d="m54 41h2.85c.0970766-.662298.1472016-1.3306312.15-2 .00452-1.5991263-.7582513-3.103386-2.0509709-4.0447155s-2.9585038-1.2054896-4.4790291-.7102845c2.0922614.6391512 3.5236736 2.5672998 3.53 4.755-.0027984.6693688-.0529234 1.337702-.15 2h-2.85c-.5522847 0-1 .4477153-1 1v2c0 .5522847.4477153 1 1 1h1.95c-.6863743 2.2840718-1.5044097 4.5264903-2.45 6.716.04.092.082.2.12.284h2.76c.9945168-2.2803868 1.8526949-4.6178369 2.57-7h-1.95c-.5522847 0-1-.4477153-1-1v-2c0-.5522847.4477153-1 1-1z" fill="#f57c00" fill-rule="nonzero"/><path id="Shape" d="m48 30 4 4 4-4" stroke="#000" stroke-linecap="round" stroke-linejoin="round" stroke-width="2"/><path id="Shape" d="m52 28v6" stroke="#000" stroke-linecap="round" stroke-linejoin="round" stroke-width="2"/><path id="Shape" d="m43 33.93v.07c.0048174 1.517872-1.1320313 2.7968267-2.64 2.97-.1189668.0199152-.2393778.0299494-.36.03-.3415766.0021256-.6806042-.0588994-1-.18v-2.82c-.0033546-.8441668-.5351012-1.5958086-1.33-1.88.7908225-.9761494 2.1061116-1.3561696 3.2956835-.9522062s2.0014564 1.5063447 2.0343165 2.7622062z" fill="#37474f" fill-rule="nonzero"/><path id="Shape" d="m47 39c.0093188.7908908.0795264 1.5798899.21 2.36l-.2.04-6.65-4.43c1.5079687-.1731733 2.6448174-1.452128 2.64-2.97v-.07l4.46 2.97c-.3014775.6591391-.4583267 1.3751895-.46 2.1z" fill="#707070" fill-rule="nonzero"/><path id="Shape" d="m59 43c-.0032948 1.1032019-.8967981 1.9967052-2 2h-3c-.5522847 0-1-.4477153-1-1v-2c0-.5522847.4477153-1 1-1h3c1.1011688.0081672 1.9918328.8988312 2 2z" fill="#9e9e9e" fill-rule="nonzero"/><path id="Shape" d="m35 24c0-.5522847-.4477153-1-1-1h-8c-.5522847 0-1 .4477153-1 1s.4477153 1 1 1h8c.5522847 0 1-.4477153 1-1z" fill="#000" fill-rule="nonzero"/><path id="Shape" d="m27 21c.5522847 0 1-.4477153 1-1v-2c0-.5522847-.4477153-1-1-1s-1 .4477153-1 1v2c0 .5522847.4477153 1 1 1z" fill="#000" fill-rule="nonzero"/><path id="Shape" d="m33 21c.5522847 0 1-.4477153 1-1v-2c0-.5522847-.4477153-1-1-1s-1 .4477153-1 1v2c0 .5522847.4477153 1 1 1z" fill="#000" fill-rule="nonzero"/><path id="Shape" d="m34 35h-8c-1.1045695 0-2 .8954305-2 2v8c0 1.1045695.8954305 2 2 2h8c1.1045695 0 2-.8954305 2-2v-8c0-1.1045695-.8954305-2-2-2zm0 10h-8v-8h8z" fill="#000" fill-rule="nonzero"/><path id="Shape" d="m29 43c.2651948-.0000566.5195073-.1054506.707-.293l2-2c.3789722-.3923789.3735524-1.0160848-.0121814-1.4018186s-1.0094397-.3911536-1.4018186-.0121814l-2 2c-.2859079.2859943-.3714219.7160366-.216678 1.0896546.1547439.3736179.5192821.6172591.923678.6173454z" fill="#000" fill-rule="nonzero"/><path id="Shape" d="m57 46c1.4694073.0026977 2.723293-1.0620228 2.9588109-2.5124353.235518-1.4504124-.6170478-2.8571785-2.0118109-3.3195647.033-.4.053-.791.053-1.168-.0044186-2.5213498-1.5834215-4.7714189-3.953-5.633l2.66-2.66c.3789722-.3923789.3735524-1.0160848-.0121814-1.4018186s-1.0094397-.3911536-1.4018186-.0121814l-2.293 2.293v-3.586c0-.5522847-.4477153-1-1-1s-1 .4477153-1 1v3.586l-2.293-2.293c-.3923789-.3789722-1.0160848-.3735524-1.4018186.0121814s-.3911536 1.0094397-.0121814 1.4018186l2.66 2.66c-1.1264904.4118116-2.1042895 1.1507323-2.808 2.122l-3.211-2.138c-.3169845-1.9278569-1.9802674-3.3446493-3.934-3.351-.9820623.0026107-1.9277861.3716997-2.652 1.035-.1152378-.0182919-.2314276-.0299777-.348-.035h-3v-2h2c1.6568542 0 3-1.3431458 3-3h1c1.6568542 0 3-1.3431458 3-3v-4c0-1.6568542-1.3431458-3-3-3h-1c0-1.6568542-1.3431458-3-3-3h-1.1c-.4731925-2.330324-2.5221184-4.00501256-4.9-4.00501256s-4.4268075 1.67468856-4.9 4.00501256h-1.1c-1.6568542 0-3 1.3431458-3 3h-1c-1.6568542 0-3 1.3431458-3 3v4c0 1.6568542 1.3431458 3 3 3h1c0 1.6568542 1.3431458 3 3 3h2v2h-3c-.1165724.0050223-.2327622.0167081-.348.035-.7242139-.6633003-1.6699377-1.0323893-2.652-1.035-1.9537326.0063507-3.6170155 1.4231431-3.934 3.351l-3.211 2.138c-.7037105-.9712677-1.6815096-1.7101884-2.808-2.122l2.66-2.66c.3789722-.3923789.3735524-1.0160848-.0121814-1.4018186s-1.0094397-.3911536-1.4018186-.0121814l-2.293 2.293v-3.586c0-.5522847-.44771525-1-1-1s-1 .4477153-1 1v3.586l-2.293-2.293c-.39237889-.3789722-1.01608478-.3735524-1.40181858.0121814-.38573379.3857338-.39115363 1.0094397-.01218142 1.4018186l2.66 2.66c-2.36957851.8615811-3.94858139 3.1116502-3.953 5.633 0 .377.02.769.053 1.168-1.39476306.4623862-2.24732886 1.8691523-2.01181092 3.3195647.23551793 1.4504125 1.48940366 2.515133 2.95881092 2.5124353h.309c.561 1.811 1.222 3.563 1.808 5h-3.117c-1.1045695 0-2 .8954305-2 2v6c0 1.1045695.8954305 2 2 2h12c1.1045695 0 2-.8954305 2-2v-6c0-1.1045695-.8954305-2-2-2h-3.116c1.2142861-2.8527143 2.1473721-5.8170877 2.786-8.851l6.24-4.158c.031 0 .059.009.09.009v10c0 1.6568542 1.3431458 3 3 3v2.142c-1.9482742.5014457-3.2190002 2.3742805-2.9650329 4.3699561.2539674 1.9956755 1.953264 3.4905487 3.9650329 3.4880439h12c2.0117689.0025048 3.7110655-1.4923684 3.9650329-3.4880439.2539673-1.9956756-1.0167587-3.8685104-2.9650329-4.3699561v-2.142c1.6568542 0 3-1.3431458 3-3v-10c.031 0 .059-.008.09-.009l6.24 4.158c.6386279 3.0339123 1.5717139 5.9982857 2.786 8.851h-3.116c-1.1045695 0-2 .8954305-2 2v6c0 1.1045695.8954305 2 2 2h12c1.1045695 0 2-.8954305 2-2v-6c0-1.1045695-.8954305-2-2-2h-3.117c.586-1.437 1.247-3.189 1.808-5zm0-2h-3v-2h3c.5522847 0 1 .4477153 1 1s-.4477153 1-1 1zm-15-10c0 1.1045695-.8954305 2-2 2v-2c-.0029853-.6825888-.2410026-1.3433166-.674-1.871.6107808-.2327466 1.297201-.1477322 1.8327458.2269889.5355448.3747212.8506206.9904544.8412542 1.6440111zm-2-16c.5522847 0 1 .4477153 1 1v4c0 .5522847-.4477153 1-1 1h-1v-6zm-10-7c1.2667854.0052514 2.3937454.8056491 2.816 2h-5.632c.4222546-1.1943509 1.5492146-1.9947486 2.816-2zm-10 13c-.5522847 0-1-.4477153-1-1v-4c0-.5522847.4477153-1 1-1h1v6zm3 2v-10c0-.5522847.4477153-1 1-1h12c.5522847 0 1 .4477153 1 1v10c0 .5522847-.4477153 1-1 1h-12c-.5522847 0-1-.4477153-1-1zm5 3h4v2h-4zm-8 3c.2304562.0035039.4585374.0471575.674.129-.4329974.5276834-.6710147 1.1884112-.674 1.871v2c-1.1045695 0-2-.8954305-2-2s.8954305-2 2-2zm-18 11c0-.5522847.44771525-1 1-1h3v2h-3c-.55228475 0-1-.4477153-1-1zm12 12h-6c-.55228475 0-1 .4477153-1 1s.44771525 1 1 1h6v2h-12v-2h2c.55228475 0 1-.4477153 1-1s-.44771525-1-1-1h-2v-2h12zm-5.281-4h-1.438c-.574-1.365-1.269-3.137-1.874-5h.593c1.1045695 0 2-.8954305 2-2v-2c0-1.1045695-.8954305-2-2-2h-1.954c-.029-.343-.046-.678-.046-1 0-2.209139 1.790861-4 4-4s4 1.790861 4 4c0 3.594-1.949 8.836-3.281 12zm5.25-11.453c.007-.18.031-.372.031-.547-.0013403-.5757262-.0855368-1.1482625-.25-1.7l2.578-1.717c.272542.6203079.6981846 1.1612215 1.237 1.572zm24.031 17.453c0 1.1045695-.8954305 2-2 2h-12c-1.1045695 0-2-.8954305-2-2s.8954305-2 2-2h12c1.1045695 0 2 .8954305 2 2zm-3-4h-10v-2h10zm3-5c0 .5522847-.4477153 1-1 1h-14c-.5522847 0-1-.4477153-1-1v-14c0-.5522847.4477153-1 1-1h14c.5522847 0 1 .4477153 1 1zm4.435-10.849c.5388154-.4107785.964458-.9516921 1.237-1.572l2.578 1.721c-.1644632.5517375-.2486597 1.1242738-.25 1.7 0 .175.024.367.031.547zm15.565 17.849h-2c-.5522847 0-1 .4477153-1 1s.4477153 1 1 1h2v2h-12v-2h6c.5522847 0 1-.4477153 1-1s-.4477153-1-1-1h-6v-2h12zm-5.281-4h-1.438c-1.332-3.164-3.281-8.406-3.281-12 0-2.209139 1.790861-4 4-4s4 1.790861 4 4c0 .322-.017.657-.046 1h-1.954c-1.1045695 0-2 .8954305-2 2v2c0 1.1045695.8954305 2 2 2h.593c-.605 1.863-1.3 3.635-1.874 5z" fill="#000" fill-rule="nonzero"/><path id="Shape" d="m39 6c-.226899.00035951-.4470919-.07691975-.624-.219-2.3978658-1.84622704-5.35007-2.82641805-8.376-2.781-3.0262712-.04564476-5.9788644.93455837-8.377 2.781-.4313344.34517797-1.060822.27533439-1.406-.156s-.2753344-1.06082203.156-1.406c2.7538104-2.1286138 6.1466949-3.26309965 9.627-3.219 3.4803051-.04409965 6.8731896 1.0903862 9.627 3.219.3320683.26553762.4599178.71202061.3187268 1.11307508s-.5205463.66897631-.9457268.66792492z" fill="#ef314c" fill-rule="nonzero"/><path id="Shape" d="m36 9c-.2270891.00048149-.4474263-.07720151-.624-.22-3.1910537-2.37345287-7.5609463-2.37345287-10.752 0-.4318457.32441833-1.0432686.24728493-1.3810132-.17422023-.3377445-.42150515-.2797404-1.03503845.1310132-1.38577977 3.921665-2.95941353 9.330335-2.95941353 13.252 0 .3310896.26562698.4584082.71133426.3175821 1.1117665-.1408262.40043224-.5191083.6683271-.9435821.6682335z" fill="#ef314c" fill-rule="nonzero"/></g></g></svg>